<svg width="134" height="171" viewBox="0 0 134 171" fill="none" xmlns="http://www.w3.org/2000/svg">
<path d="M85.2494 0.00012207C38.2427 0.00012207 0 38.2428 0 85.2508C0 132.259 38.2427 170.501 85.2494 170.501H115.687C125.663 170.501 133.776 162.387 133.776 152.411C133.776 142.436 125.663 134.321 115.687 134.321H85.2494C58.1934 134.321 36.18 112.308 36.18 85.2508C36.18 58.1934 58.1934 36.1801 85.2494 36.1801H115.687C125.663 36.1801 133.776 28.0641 133.776 18.0908C133.776 8.11477 125.663 0.00012207 115.687 0.00012207H85.2494Z" fill="url(#paint0_linear_2236_24)"/>
<path d="M59.2827 85.2514C59.2827 100.759 71.8547 113.334 87.3641 113.334C102.875 113.334 115.447 100.759 115.447 85.2514C115.447 69.7421 102.875 57.1701 87.3641 57.1701C71.8547 57.1701 59.2827 69.7421 59.2827 85.2514Z" fill="url(#paint1_linear_2236_24)"/>
<defs>
<linearGradient id="paint0_linear_2236_24" x1="-37.4297" y1="193.254" x2="189.722" y2="-2.29399" gradientUnits="userSpaceOnUse">
<stop stop-color="#C8C0C0"/>
<stop offset="1" stop-color="white"/>
</linearGradient>
<linearGradient id="paint1_linear_2236_24" x1="53.6536" y1="95.0477" x2="135.884" y2="71.1518" gradientUnits="userSpaceOnUse">
<stop stop-color="#BEBABA"/>
<stop offset="1" stop-color="white"/>
</linearGradient>
</defs>
</svg>
