<svg width="525" height="182" viewBox="0 0 525 182" fill="none" xmlns="http://www.w3.org/2000/svg">
<path d="M85.2494 5.73718C38.2427 5.73718 0 43.9798 0 90.9878C0 137.996 38.2427 176.239 85.2494 176.239H115.687C125.663 176.239 133.776 168.124 133.776 158.148C133.776 148.173 125.663 140.058 115.687 140.058H85.2494C58.1934 140.058 36.18 118.045 36.18 90.9878C36.18 63.9305 58.1934 41.9172 85.2494 41.9172H115.687C125.663 41.9172 133.776 33.8012 133.776 23.8278C133.776 13.8518 125.663 5.73718 115.687 5.73718H85.2494Z" fill="url(#paint0_linear_2134_305)"/>
<path d="M59.2827 90.9879C59.2827 106.496 71.8547 119.071 87.3641 119.071C102.875 119.071 115.447 106.496 115.447 90.9879C115.447 75.4785 102.875 62.9066 87.3641 62.9066C71.8547 62.9066 59.2827 75.4785 59.2827 90.9879Z" fill="url(#paint1_linear_2134_305)"/>
<path d="M184.869 135.558V161.595C184.869 172.849 193.995 181.976 205.249 181.976C216.505 181.976 225.632 172.849 225.632 161.595V135.558C225.632 115.12 242.261 98.4918 262.7 98.4918C283.139 98.4918 299.768 115.12 299.768 135.558V161.595C299.768 172.849 308.893 181.976 320.148 181.976C331.404 181.976 340.531 172.849 340.531 161.595V135.558C340.531 92.6425 305.616 57.7292 262.7 57.7292C219.783 57.7292 184.869 92.6425 184.869 135.558Z" fill="url(#paint2_linear_2134_305)"/>
<path d="M184.869 24.0213C184.869 37.2879 195.623 48.0426 208.891 48.0426C222.156 48.0426 232.911 37.2879 232.911 24.0213C232.911 10.7546 222.156 -3.78265e-05 208.891 -3.78265e-05C195.623 -3.78265e-05 184.869 10.7546 184.869 24.0213Z" fill="url(#paint3_linear_2134_305)"/>
<path d="M483.576 20.3827V46.4186C483.576 66.8573 466.945 83.484 446.507 83.484C426.069 83.484 409.44 66.8573 409.44 46.4186V20.3827C409.44 9.12668 400.313 2.77506e-05 389.057 2.77506e-05C377.803 2.77506e-05 368.676 9.12668 368.676 20.3827V46.4186C368.676 89.3333 403.589 124.245 446.507 124.245C489.424 124.245 524.339 89.3333 524.339 46.4186V20.3827C524.339 9.12668 515.212 2.77506e-05 503.956 2.77506e-05C492.701 2.77506e-05 483.576 9.12668 483.576 20.3827Z" fill="url(#paint4_linear_2134_305)"/>
<path d="M476.295 157.955C476.295 171.221 487.051 181.976 500.316 181.976C513.584 181.976 524.339 171.221 524.339 157.955C524.339 144.688 513.584 133.933 500.316 133.933C487.051 133.933 476.295 144.688 476.295 157.955Z" fill="url(#paint5_linear_2134_305)"/>
<defs>
<linearGradient id="paint0_linear_2134_305" x1="-37.4297" y1="198.991" x2="189.722" y2="3.44307" gradientUnits="userSpaceOnUse">
<stop stop-color="#C8C0C0"/>
<stop offset="1" stop-color="white"/>
</linearGradient>
<linearGradient id="paint1_linear_2134_305" x1="53.6536" y1="100.784" x2="135.884" y2="76.8882" gradientUnits="userSpaceOnUse">
<stop stop-color="#BEBABA"/>
<stop offset="1" stop-color="white"/>
</linearGradient>
<linearGradient id="paint2_linear_2134_305" x1="164.166" y1="23.4832" x2="342.72" y2="230.895" gradientUnits="userSpaceOnUse">
<stop stop-color="#B5AFAF"/>
<stop offset="1" stop-color="white"/>
</linearGradient>
<linearGradient id="paint3_linear_2134_305" x1="190.266" y1="-11.5033" x2="222.73" y2="50.4195" gradientUnits="userSpaceOnUse">
<stop stop-color="#AAA1A1"/>
<stop offset="1" stop-color="white"/>
</linearGradient>
<linearGradient id="paint4_linear_2134_305" x1="545.041" y1="158.492" x2="366.487" y2="-48.9189" gradientUnits="userSpaceOnUse">
<stop stop-color="#BAB0B0"/>
<stop offset="1" stop-color="white"/>
</linearGradient>
<linearGradient id="paint5_linear_2134_305" x1="518.941" y1="193.479" x2="486.477" y2="131.556" gradientUnits="userSpaceOnUse">
<stop stop-color="#A19A9A"/>
<stop offset="1" stop-color="white"/>
</linearGradient>
</defs>
</svg>
