<svg width="156" height="182" viewBox="0 0 156 182" fill="none" xmlns="http://www.w3.org/2000/svg">
<path d="M114.9 20.3826V46.4186C114.9 66.8572 98.2693 83.4839 77.8306 83.4839C57.3933 83.4839 40.764 66.8572 40.764 46.4186V20.3826C40.764 9.12662 31.6373 -3.32845e-05 20.3813 -3.32845e-05C9.12668 -3.32845e-05 0 9.12662 0 20.3826V46.4186C0 89.3332 34.9133 124.245 77.8306 124.245C120.748 124.245 155.663 89.3332 155.663 46.4186V20.3826C155.663 9.12662 146.536 -3.32845e-05 135.28 -3.32845e-05C124.025 -3.32845e-05 114.9 9.12662 114.9 20.3826Z" fill="url(#paint0_linear_2236_32)"/>
<path d="M107.619 157.954C107.619 171.221 118.375 181.975 131.64 181.975C144.908 181.975 155.663 171.221 155.663 157.954C155.663 144.687 144.908 133.933 131.64 133.933C118.375 133.933 107.619 144.687 107.619 157.954Z" fill="url(#paint1_linear_2236_32)"/>
<defs>
<linearGradient id="paint0_linear_2236_32" x1="176.365" y1="158.492" x2="-2.18895" y2="-48.919" gradientUnits="userSpaceOnUse">
<stop stop-color="#BAB0B0"/>
<stop offset="1" stop-color="white"/>
</linearGradient>
<linearGradient id="paint1_linear_2236_32" x1="150.265" y1="193.478" x2="117.801" y2="131.555" gradientUnits="userSpaceOnUse">
<stop stop-color="#A19A9A"/>
<stop offset="1" stop-color="white"/>
</linearGradient>
</defs>
</svg>
