<svg width="134" height="171" viewBox="0 0 134 171" fill="none" xmlns="http://www.w3.org/2000/svg">
<path d="M85.2494 0C38.2427 0 0 38.2426 0 85.2506C0 132.259 38.2427 170.501 85.2494 170.501H115.687C125.663 170.501 133.776 162.387 133.776 152.411C133.776 142.436 125.663 134.321 115.687 134.321H85.2494C58.1934 134.321 36.18 112.308 36.18 85.2506C36.18 58.1933 58.1934 36.18 85.2494 36.18H115.687C125.663 36.18 133.776 28.064 133.776 18.0907C133.776 8.11465 125.663 0 115.687 0H85.2494Z" fill="url(#paint0_linear_2236_7)"/>
<path d="M59.2827 85.2513C59.2827 100.759 71.8547 113.334 87.3641 113.334C102.875 113.334 115.447 100.759 115.447 85.2513C115.447 69.742 102.875 57.17 87.3641 57.17C71.8547 57.17 59.2827 69.742 59.2827 85.2513Z" fill="url(#paint1_linear_2236_7)"/>
<defs>
<linearGradient id="paint0_linear_2236_7" x1="-37.4297" y1="193.254" x2="189.722" y2="-2.29411" gradientUnits="userSpaceOnUse">
<stop stop-color="#433636"/>
<stop offset="1"/>
</linearGradient>
<linearGradient id="paint1_linear_2236_7" x1="53.6536" y1="95.0476" x2="135.884" y2="71.1517" gradientUnits="userSpaceOnUse">
<stop stop-color="#514242"/>
<stop offset="1"/>
</linearGradient>
</defs>
</svg>
