<svg width="156" height="182" viewBox="0 0 156 182" fill="none" xmlns="http://www.w3.org/2000/svg">
<path d="M0 135.558V161.594C0 172.848 9.12534 181.975 20.38 181.975C31.636 181.975 40.7627 172.848 40.7627 161.594V135.558C40.7627 115.119 57.392 98.491 77.8307 98.491C98.2693 98.491 114.899 115.119 114.899 135.558V161.594C114.899 172.848 124.024 181.975 135.279 181.975C146.535 181.975 155.661 172.848 155.661 161.594V135.558C155.661 92.6416 120.747 57.7284 77.8307 57.7284C34.9134 57.7284 0 92.6416 0 135.558Z" fill="url(#paint0_linear_2236_11)"/>
<path d="M0 24.0213C0 37.2879 10.7533 48.0426 24.0213 48.0426C37.2867 48.0426 48.0414 37.2879 48.0414 24.0213C48.0414 10.7546 37.2867 -3.78265e-05 24.0213 -3.78265e-05C10.7533 -3.78265e-05 0 10.7546 0 24.0213Z" fill="url(#paint1_linear_2236_11)"/>
<defs>
<linearGradient id="paint0_linear_2236_11" x1="-20.7036" y1="23.4823" x2="157.85" y2="230.894" gradientUnits="userSpaceOnUse">
<stop stop-color="#483939"/>
<stop offset="1"/>
</linearGradient>
<linearGradient id="paint1_linear_2236_11" x1="5.39623" y1="-11.5033" x2="37.8606" y2="50.4195" gradientUnits="userSpaceOnUse">
<stop stop-color="#675050"/>
<stop offset="1"/>
</linearGradient>
</defs>
</svg>
