<svg height="64" viewBox="-2.138 -2.29 314.9 359.304" width="64" xmlns="http://www.w3.org/2000/svg"><path d="m48.173 155.568c-10.389 4.887-37.886 26.886-43.182 33.404-5.5 6.518-7.129-3.666-1.426-20.572 4.48-13.647 15.888-32.183 35.034-48.07 11.202-9.166 35.849-22.405 50.921-30.146 3.056-1.63 42.571-18.332 77.809-26.683 3.056-.815-3.666 5.092-4.685 8.351-5.296 15.48-111.01 81.882-111.01 81.882zm148.894 186.78c1.833 10.999.204 11.814-11.202 13.24-11.407 1.426-19.758-2.852-22.813-5.703-3.056-2.853-3.666-9.166-.611-14.869 1.834-3.667 3.667-4.889 4.686-9.37 1.018-4.277 1.833-5.296 2.647-6.925.814-1.427 1.019-2.853 1.222-12.833.204-9.98 0-28.72 1.019-36.663 1.019-8.147 36.257 3.666 36.257 3.666s-8.352 20.776-10.592 25.868c-2.241 5.093-2.037 14.869-2.037 16.906s-.814 6.11-1.426 6.314c-.611.203 2.037 5.499.814 8.555-.815 2.852 1.833 10.185 2.036 11.814zm13.444-311.437c-1.223-7.74 0-23.018 1.629-25.461 5.093-6.926 31.979-7.74 37.683.407 2.444 3.666 2.24 12.221 1.833 17.721-.407 5.499-1.833 17.313-2.037 21.184-.203 2.852-29.738 7.332-36.256-.408-1.834-2.036-2.852-13.443-2.852-13.443zm59.884 291.679c12.425 8.963 21.998 10.592 28.312 13.851 6.314 3.26 4.685 9.574-5.907 11.407-8.555 1.629-21.998-1.63-30.96-1.63s-28.924 1.019-34.22-2.647c-6.11-4.277-3.463-12.222-3.463-12.222 1.63-4.48 5.703-14.462 4.481-22.609s-2.852-12.628-5.907-20.165c-3.055-7.536-5.295-26.071-2.443-27.09s2.036 0 5.703.814c3.666.814 7.74 2.037 15.684 2.037s16.702-1.223 19.758-1.833c3.055-.611 5.499-1.223 4.48 5.092-1.018 6.314-4.073 18.128-4.277 27.294-.203 9.166-.203 19.758.408 21.591.61 1.833 5.092 3.87 8.351 6.11z" fill="#88CE02"/><path d="m226.806 51.28c-22.405 19.351-65.791 24.646-130.155 49.496-16.499 6.314-60.495 25.257-71.087 45.015 35.645-20.572 48.885 7.74 51.736 36.867 2.647 27.294 16.295 41.553 51.329 40.737 36.053-.814 47.052 20.165 57.032 44.812 19.35-94.308 50.311-112.639 70.271-128.73 42.368-34.424-9.776-95.123-29.126-88.197z" fill="#88CE02"/><path d="m226.806 51.28c-53.773 18.739-106.936 23.424-169.467 61.921-14.869 9.166-46.237 29.941-52.348 69.661 22.812-25.258 75.567-57.032 140.136-77.197 32.59-10.185 56.422-16.906 85.345-28.109-2.036-13.037-2.036-18.129-3.666-26.276z" fill="#88CE02"/></svg>