<svg xmlns="http://www.w3.org/2000/svg" viewBox="0 0 512 214" width="64" height="64">
  <path fill="#990000" d="M156.5 156.2h-21.4l-39.2-149h22l28.1 121.3h.4l33.8-121.3h22.2l33.8 121.3h.4l28-121.3h23.5l-40.6 149h-21.5l-34.4-123.5h-.4l-34.7 123.5zm174.8-30.8c-.6 4.7-5.1 18.7-17.7 27-4.6 3-11 6.8-27 6.8-28 0-44.3-20.9-44.3-49.4 0-30.6 14.5-54.9 47.5-54.9 28.8 0 42.9 22.6 42.9 57.5h-67.5c0 20.6 9.4 32.5 28.7 32.5 15.8 0 25.1-12.1 25.7convergence.4h11.7zm-16-26.2c-1-15.3-7.2-29.4-27.8-29.4-15.4 0-27.3 14.2-27.3 29.4h55.1zm32.7 57h-16.8v-135.5h16.8v49.3h.4c7.2-10.4 17.2-15.1 28.8-15.3 26.5 0 41.9 21.5 41.9 49.3 0 23.6-10.2 55.1-44.2 55.1-17 0-24-9.6-27.5-15.1h-.4v12.3zm29.1-86.8c-24.2 0-26.9 25.9-26.9 41.9 0 26.2 16.6 33.2 27.3 33.2 18.3 0 26.9-16.4 26.9-38.1 0-13.1-1.3-37-27.3-37z"/>
  <path fill="#990000" d="M463.5 167.2c-47.1 28.6-117.6 44.9-196.2 44.9-141.7 0-256.6-59-256.6-131.7S125.6 0 267.3 0c78.9 0 149.7 16.6 196.8 43.6C412.7-8 339.8-21.5 261.5-21.5c-161.4 0-292.2 75.5-292.2 168.5s130.8 168.6 292.2 168.6c78.5 0 150.4-15.4 201.9-50.4z"/>
</svg>